# xmcd CD database file
#
# Track frame offsets:
#	150
#	24557
#	46387
#	66152
#	95915
#	119407
#	139082
#	163435
#	187585
#	212287
#	233140
#	258585
#
# Disc length: 3725 seconds
#
# Revision: 3
# Processed by: cddbd v1.5.2PL0 Copyright (c) Steve Scherf et al.
# Submitted via: CDex 1.70beta2
#
DISCID=aa0e8b0c
DTITLE=Various Artist - Reflections - Interludes
DYEAR=1995
DGENRE=Jazz
TTITLE0=A Broken Spirit - Alex Acuna, Chester Thompson
TTITLE1=God Shall Bless Us - Alex Acuna, Chester Thompson
TTITLE2=I Worship You Almighty God - Alex Acuna, Chester Thompson
TTITLE3=Awake To Righteousness - Alex Acuna, Abraham Laboriel
TTITLE4=Heaven Reigns - Alex Acuna, Abraham Laboriel
TTITLE5=One Love - Alex Acuna, Abraham Laboriel
TTITLE6=I Will Sing To You - Alex Acuna, Chester Thompson
TTITLE7=Let Him Ask In Faith - Alex Acuna, Chester Thompson
TTITLE8=Awesome In This Place - Alex Acuna, Chester Thompson
TTITLE9=Firm Foundation - Alex Acuna, Chester Thompson
TTITLE10=Revive Me - Alex Acuna, Chester Thompson
TTITLE11=Right Where We Are - Alex Acuna, Chester Thompson
EXTD=YEAR: 1995
EXTT0=
EXTT1=
EXTT2=
EXTT3=
EXTT4=
EXTT5=
EXTT6=
EXTT7=
EXTT8=
EXTT9=
EXTT10=
EXTT11=
PLAYORDER=
